<?xml version="1.0" encoding="UTF-8" standalone="no"?>
<svg
   xmlns:dc="http://purl.org/dc/elements/1.1/"
   xmlns:cc="http://creativecommons.org/ns#"
   xmlns:rdf="http://www.w3.org/1999/02/22-rdf-syntax-ns#"
   xmlns:svg="http://www.w3.org/2000/svg"
   xmlns="http://www.w3.org/2000/svg"
   xmlns:sodipodi="http://sodipodi.sourceforge.net/DTD/sodipodi-0.dtd"
   xmlns:inkscape="http://www.inkscape.org/namespaces/inkscape"
   width="1480"
   height="515"
   viewBox="0 0 391.58333 136.26042"
   preserveAspectRatio="none"
   version="1.1"
   id="svg8"
   inkscape:version="1.0.2-2 (e86c870879, 2021-01-15)"
   sodipodi:docname="div.svg">
  <defs
     id="defs2" />
  <sodipodi:namedview
     id="base"
     pagecolor="#ffffff"
     bordercolor="#666666"
     borderopacity="1.0"
     inkscape:pageopacity="0.0"
     inkscape:pageshadow="2"
     inkscape:zoom="0.35"
     inkscape:cx="892.56982"
     inkscape:cy="-181.2061"
     inkscape:document-units="mm"
     inkscape:current-layer="layer1"
     inkscape:document-rotation="0"
     showgrid="false"
     inkscape:window-width="1920"
     inkscape:window-height="1001"
     inkscape:window-x="-9"
     inkscape:window-y="-9"
     inkscape:window-maximized="1"
     units="px" />
  <metadata
     id="metadata5">
    <rdf:RDF>
      <cc:Work
         rdf:about="">
        <dc:format>image/svg+xml</dc:format>
        <dc:type
           rdf:resource="http://purl.org/dc/dcmitype/StillImage" />
        <dc:title></dc:title>
      </cc:Work>
    </rdf:RDF>
  </metadata>
  <g
     inkscape:label="Layer 1"
     inkscape:groupmode="layer"
     id="layer1">
    <path
       style="fill:#5c5151;stroke-width:0.116446"
       d=""
       id="path841"
       transform="scale(0.26458333)" />
    <path
       style="fill:#bebb98;fill-opacity:1;stroke-width:0.116446"
       d=""
       id="path843"
       transform="scale(0.26458333)" />
    <path
       style="fill:#bbe1ed;fill-opacity:1;stroke-width:0.433419"
       d="M -2.6171285,123.71798 C -2.6282941,100.51813 -1.6705295,4.7020331 -1.3804299,0.00840881 l 0.2730654,-4.41803851 34.0611115,0.3155575 c 18.73361,0.1735566 94.508553,0.6171616 168.388733,0.9857936 155.12768,0.7740171 201.29137,1.1576747 202.13228,1.6798692 0.67014,0.4161679 0.23118,17.4190404 -1.47687,57.2057124 -1.535,35.755643 -2.1455,43.685146 -3.52634,45.802677 -4.00474,6.14138 -26.65891,13.16447 -55.76859,17.28904 -20.6694,2.92866 -31.42151,3.56004 -60.72501,3.56589 -36.84727,0.008 -48.39597,-1.15816 -93.29461,-9.41562 -29.72976,-5.46767 -34.15445,-5.89313 -61.1859,-5.8833 -22.81204,0.008 -27.765326,0.29329 -41.493845,2.38734 -24.13375,3.68118 -44.768309,9.26673 -66.160586,18.02959 -4.239814,1.73676 -8.509399,3.59831 -12.8418789,5.59458 -3.0944574,1.42582 -6.52297561,2.9842 -7.6189296,3.46305 l -1.9926451,0.87064 z"
       id="path849"
       sodipodi:nodetypes="sscssssssssssssscs" />
  </g>
</svg>
