<?xml version="1.0" encoding="UTF-8" standalone="no"?>
<svg
   xmlns:dc="http://purl.org/dc/elements/1.1/"
   xmlns:cc="http://creativecommons.org/ns#"
   xmlns:rdf="http://www.w3.org/1999/02/22-rdf-syntax-ns#"
   xmlns:svg="http://www.w3.org/2000/svg"
   xmlns="http://www.w3.org/2000/svg"
   xmlns:sodipodi="http://sodipodi.sourceforge.net/DTD/sodipodi-0.dtd"
   xmlns:inkscape="http://www.inkscape.org/namespaces/inkscape"
   width="210mm"
   height="76mm"
   viewBox="0 0 210 76"
   preserveAspectRatio="none"
   version="1.1"
   id="svg8"
   inkscape:version="1.0.2-2 (e86c870879, 2021-01-15)"
   sodipodi:docname="div2.svg">
  <defs
     id="defs2" />
  <sodipodi:namedview
     id="base"
     pagecolor="#ffffff"
     bordercolor="#666666"
     borderopacity="1.0"
     inkscape:pageopacity="0.0"
     inkscape:pageshadow="2"
     inkscape:zoom="0.98994949"
     inkscape:cx="390.26384"
     inkscape:cy="202.09607"
     inkscape:document-units="mm"
     inkscape:current-layer="layer1"
     inkscape:document-rotation="0"
     showgrid="false"
     inkscape:window-width="1920"
     inkscape:window-height="1001"
     inkscape:window-x="-9"
     inkscape:window-y="-9"
     inkscape:window-maximized="1"
     units="mm"
     width="209mm" />
  <metadata
     id="metadata5">
    <rdf:RDF>
      <cc:Work
         rdf:about="">
        <dc:format>image/svg+xml</dc:format>
        <dc:type
           rdf:resource="http://purl.org/dc/dcmitype/StillImage" />
        <dc:title></dc:title>
      </cc:Work>
    </rdf:RDF>
  </metadata>
  <g
     inkscape:label="Layer 1"
     inkscape:groupmode="layer"
     id="layer1">
    <path
       style="fill:#76858a;fill-opacity:1;stroke:#ffffff;stroke-width:0.348573"
       d="m 219.90387,28.966725 c 0.0242,17.9307 -0.0291,36.06979 -0.11842,40.30908 l -0.16245,7.70782 -27.64439,-0.007 c -15.20441,-0.004 -65.65942,0.14789 -112.122233,0.33725 -46.462806,0.18937 -86.071833,0.25829 -88.0200571,0.15315 l -3.5422219,-0.19113 0.193744,-6.10542 c 1.478548,-46.59368 1.7254845,-51.35454 2.7378294,-52.7832 1.9720259,-2.783009 12.2952308,-6.393069 25.1141836,-8.7824994 11.666255,-2.174581 20.137871,-2.981531 35.3132,-3.363691 22.677624,-0.5711 33.729571,0.34003 59.189435,4.8796114 16.23687,2.89511 19.42206,3.18071 34.24237,3.07035 13.65937,-0.10174 16.61014,-0.33325 27.18834,-2.13349 14.29693,-2.4331104 27.46263,-6.5671014 41.19834,-12.93615117 3.26428,-1.51361003 6.03703,-2.75288003 6.16168,-2.75395003 0.12464,-10e-4 0.24644,14.6686212 0.27061,32.5993302 z"
       id="path853" />
  </g>
</svg>
