<?xml version="1.0" encoding="UTF-8" standalone="no"?>
<svg
   xmlns:dc="http://purl.org/dc/elements/1.1/"
   xmlns:cc="http://creativecommons.org/ns#"
   xmlns:rdf="http://www.w3.org/1999/02/22-rdf-syntax-ns#"
   xmlns:svg="http://www.w3.org/2000/svg"
   xmlns="http://www.w3.org/2000/svg"
   xmlns:sodipodi="http://sodipodi.sourceforge.net/DTD/sodipodi-0.dtd"
   xmlns:inkscape="http://www.inkscape.org/namespaces/inkscape"
   width="210mm"
   height="297mm"
   viewBox="0 0 210 297"
   version="1.1"
   id="svg8"
   inkscape:version="1.0.2-2 (e86c870879, 2021-01-15)"
   sodipodi:docname="logo.svg">
  <defs
     id="defs2" />
  <sodipodi:namedview
     id="base"
     pagecolor="#ffffff"
     bordercolor="#666666"
     borderopacity="1.0"
     inkscape:pageopacity="0.0"
     inkscape:pageshadow="2"
     inkscape:zoom="0.7"
     inkscape:cx="623.06564"
     inkscape:cy="533.65835"
     inkscape:document-units="mm"
     inkscape:current-layer="layer1"
     inkscape:document-rotation="0"
     showgrid="false"
     inkscape:window-width="1758"
     inkscape:window-height="1030"
     inkscape:window-x="144"
     inkscape:window-y="0"
     inkscape:window-maximized="0" />
  <metadata
     id="metadata5">
    <rdf:RDF>
      <cc:Work
         rdf:about="">
        <dc:format>image/svg+xml</dc:format>
        <dc:type
           rdf:resource="http://purl.org/dc/dcmitype/StillImage" />
        <dc:title></dc:title>
      </cc:Work>
    </rdf:RDF>
  </metadata>
  <g
     inkscape:label="Layer 1"
     inkscape:groupmode="layer"
     id="layer1">
    <circle
       style="fill:#7ab2c5;stroke-width:0.244;fill-opacity:1"
       id="path837"
       cx="107.53422"
       cy="138.1503"
       r="83.34375" />
    <rect
       style="fill:#d1d1d1;fill-opacity:1;stroke-width:0.229185"
       id="rect839"
       width="188.61011"
       height="45.685558"
       x="12.095238"
       y="118.3561"
       ry="10.337609" />
    <text
       xml:space="preserve"
       style="font-weight:bold;font-size:38.1px;line-height:1.25;font-family:Arial;-inkscape-font-specification:'Arial Bold';stroke-width:0.264583"
       x="23.812498"
       y="154.97023"
       id="text843"><tspan
         sodipodi:role="line"
         id="tspan841"
         x="23.812498"
         y="154.97023"
         style="fill:#5c5151;fill-opacity:1;stroke-width:0.264583">Portifólio</tspan></text>
    <path
       style="fill:#5c5151;fill-opacity:1;stroke-width:0.244"
       id="path855"
       d="m 18.716437,170.1779 c 0.142776,-0.0815 0.287248,-0.16011 0.428328,-0.24451 0.697563,-0.41734 1.376136,-0.86267 2.075578,-1.27739 0.279347,-0.16564 1.119548,-0.65883 0.837758,-0.49739 -0.438378,0.25116 -0.871703,0.51103 -1.307554,0.76654 2.241445,-1.17793 4.511273,-2.30158 6.779192,-3.42761 2.352538,-1.04171 4.823664,-1.80507 7.318563,-2.42207 2.637478,-0.54686 5.335005,-0.71009 8.019934,-0.83177 2.441379,-0.092 4.8847,-0.10533 7.327484,-0.0924 2.420996,0.0581 4.809649,0.4854 7.192761,0.8787 2.352702,0.44862 4.675008,1.03621 7.017811,1.53203 2.278544,0.47664 4.528505,1.07768 6.799842,1.5881 2.115063,0.4732 4.183071,1.12632 6.285884,1.6496 2.37177,0.57451 4.75697,1.08474 7.153005,1.54664 2.226844,0.40985 4.475805,0.67997 6.734328,0.82921 2.074362,0.11558 4.152863,0.13991 6.229591,0.096 2.646708,-0.0622 5.246938,-0.52984 7.822758,-1.10417 2.15844,-0.43319 4.2435,-1.14197 6.32929,-1.83187 2.23012,-0.74895 4.46631,-1.47947 6.69618,-2.22965 1.75397,-0.62565 3.5667,-1.05942 5.33364,-1.64289 1.83916,-0.58864 3.75964,-0.88614 5.66717,-1.15868 1.96127,-0.2545 3.94071,-0.29181 5.91544,-0.31889 1.66273,-0.002 3.32588,-0.0182 4.98827,0.0198 1.75319,0.0628 3.49393,0.35193 5.20209,0.74107 1.5693,0.38982 3.08897,0.95167 4.62825,1.44374 0.20417,0.0614 0.40648,0.12946 0.6125,0.18435 0.19827,0.0528 1.08966,0.24805 1.28276,0.29541 1.8395,0.4512 -0.40562,-0.0844 1.55996,0.43886 0.33666,0.0896 0.67769,0.1619 1.01654,0.24285 2.08309,0.49642 4.20516,0.73578 6.33427,0.91981 2.42274,0.19628 4.8545,0.22874 7.28356,0.19134 4.24511,-0.22545 8.50244,-0.74817 12.60958,-1.87973 0.95579,-0.26333 1.89311,-0.58954 2.83967,-0.88431 4.63076,-1.65039 8.98988,-3.95293 13.22346,-6.43093 5.144,-3.01088 4.46734,-2.63083 8.74299,-5.4065 1.00199,-0.68101 2.00398,-1.36203 3.00596,-2.04304 0,0 -1.95408,0.76714 -1.95408,0.76714 v 0 c -0.97187,0.66751 -1.94373,1.33503 -2.9156,2.00255 -0.1484,0.0964 -4.47207,2.92574 -5.34501,3.43966 -4.15366,2.44536 -8.45636,4.66795 -12.99667,6.30816 -0.93909,0.29538 -1.86881,0.6224 -2.81728,0.88614 -4.01369,1.11607 -8.18514,1.64361 -12.34317,1.74886 -2.40554,0.004 -4.81312,-0.0343 -7.21302,-0.21214 -2.11387,-0.18263 -4.22433,-0.41702 -6.2949,-0.89751 -0.3258,-0.0835 -0.65412,-0.1577 -0.9774,-0.25045 -1.46948,-0.42161 -0.15435,-0.10777 -1.54045,-0.47665 -0.90768,-0.24156 -0.37947,-0.0668 -1.27031,-0.28625 -0.20815,-0.0513 -0.4131,-0.11474 -0.61965,-0.1721 -1.55464,-0.4791 -3.09276,-1.01122 -4.65991,-1.44691 -1.71773,-0.40403 -3.47118,-0.67059 -5.2325,-0.78435 -1.67238,-0.0591 -3.34652,-0.0204 -5.01959,-0.011 -1.98129,0.0261 -3.96761,0.0587 -5.93732,0.29405 -1.89905,0.25861 -3.80458,0.56558 -5.65137,1.08363 -1.78448,0.62021 -3.61792,1.07894 -5.4035,1.69685 -1.16099,0.3992 -2.3199,0.80837 -3.48771,1.18729 -0.76087,0.24688 -1.53135,0.46349 -2.29211,0.71072 -0.29466,0.0958 -0.58568,0.20236 -0.87852,0.30354 -2.09502,0.71363 -4.18774,1.4547 -6.36292,1.89158 -2.56141,0.58207 -5.14261,1.1204 -7.782485,1.14009 -2.066669,0.0285 -4.134869,0.003 -6.199743,-0.0914 -2.264011,-0.14078 -4.521613,-0.37914 -6.756707,-0.77344 -2.387489,-0.45701 -4.755457,-0.99496 -7.121372,-1.55203 -2.110631,-0.51881 -4.169775,-1.23062 -6.305915,-1.64387 -2.270709,-0.48929 -4.497186,-1.15529 -6.774844,-1.60973 -2.361573,-0.47322 -4.69656,-1.06203 -7.062396,-1.51435 -2.385835,-0.37852 -4.766127,-0.88816 -7.189808,-0.93194 -2.448804,0.0165 -4.899075,-0.008 -7.346381,0.0911 -2.695173,0.13729 -5.402281,0.30154 -8.058732,0.79891 -2.495968,0.60659 -4.965338,1.36262 -7.333906,2.36104 -2.259081,1.13376 -4.521995,2.25964 -6.774194,3.40691 -2.233423,1.27898 -4.467133,2.55388 -6.652287,3.91384 0,0 2.584917,-1.01819 2.584917,-1.01819 z" />
  </g>
</svg>
